<?xml version="1.0" standalone="no"?>
<!DOCTYPE svg PUBLIC "-//W3C//DTD SVG 1.1//EN" "http://www.w3.org/Graphics/SVG/1.1/DTD/svg11.dtd">
<svg width="31px" height="50px" version="1.1" xmlns="http://www.w3.org/2000/svg" xmlns:xlink="http://www.w3.org/1999/xlink" xml:space="preserve" style="fill-rule:evenodd;clip-rule:evenodd;stroke-linejoin:round;stroke-miterlimit:1.41421;">
    <g id="Layer_1">
        <g>
            <path d="M24.2394,20.1988C23.2477,20.1988 22.4411,19.3943 22.4411,18.4048C22.4411,17.8202 22.7244,17.3067 23.157,16.9783C23.157,17.2568 23.157,17.5352 23.1538,17.811C23.1538,17.8354 23.1467,17.8593 23.1435,17.8843L23.1435,17.9087C23.1435,17.9434 23.1538,17.9717 23.1538,18.0031C23.2048,18.5541 23.6619,18.9872 24.222,18.9872C24.8153,18.9872 25.2973,18.5041 25.2973,17.9087L25.2973,17.8843L25.3087,17.8843L25.3087,16.968C25.744,17.2969 26.0306,17.8159 26.0306,18.4048C26.0306,19.3943 25.2284,20.1988 24.2394,20.1988M7.02984,20.1988C6.04085,20.1988 5.23642,19.3943 5.23642,18.4048C5.23642,17.7768 5.5583,17.2253 6.04411,16.9056C6.04411,17.2286 6.04411,17.5537 6.04628,17.8843L6.04628,17.8995C6.04628,17.9022 6.04411,17.9054 6.04411,17.9087C6.04411,17.9114 6.04628,17.9168 6.04628,17.919C6.04736,18.5096 6.52774,18.9872 7.11994,18.9872C7.71485,18.9872 8.19795,18.5041 8.19795,17.9087C8.19795,17.9022 8.19469,17.8957 8.19469,17.8843L8.19795,17.8843L8.19795,17.0505C8.58008,17.3805 8.82543,17.8609 8.82543,18.4048C8.82543,19.3943 8.02045,20.1988 7.02984,20.1988M8.19795,9.6342C8.20609,5.50348 11.5465,2.1609 15.6783,2.15493C19.8096,2.1609 23.1538,5.50348 23.1603,9.6342L23.1603,10.7725L8.19795,10.7725L8.19795,9.6342ZM25.3093,10.7725C25.3125,10.0918 25.3125,9.66569 25.3125,9.6342C25.3125,4.31257 20.9983,0 15.6783,0C10.3556,0 6.04411,4.31257 6.04411,9.6342L6.04411,10.7725L9.09495e-13,10.7725L9.09495e-13,35.1894C9.09495e-13,36.3754 0.968903,37.3443 2.1533,37.3443L28.8467,37.3443C30.0311,37.3443 31,36.3754 31,35.1894L31,10.7725L25.3093,10.7725Z" style="fill:black;fill-rule:nonzero;"/>
        </g>
    </g>
</svg>
