<?xml version="1.0" standalone="no"?>
<!DOCTYPE svg PUBLIC "-//W3C//DTD SVG 1.1//EN" "http://www.w3.org/Graphics/SVG/1.1/DTD/svg11.dtd">
<svg width="10px" height="10px" version="1.1" xmlns="http://www.w3.org/2000/svg" xmlns:xlink="http://www.w3.org/1999/xlink" xml:space="preserve" style="fill-rule:evenodd;clip-rule:evenodd;stroke-linejoin:round;stroke-miterlimit:1.41421;">
    <g>
        <g id="Layer1">
            <g>
                <path d="M10,8.04714C10,8.2716 9.92144,8.4624 9.76431,8.61953L8.61953,9.76431C8.4624,9.92144 8.2716,10 8.04714,10C7.82267,10 7.63187,9.92144 7.47475,9.76431L5,7.28956L2.52525,9.76431C2.36813,9.92144 2.17733,10 1.95286,10C1.7284,10 1.5376,9.92144 1.38047,9.76431L0.23569,8.61953C0.0785634,8.4624 -5.68434e-14,8.2716 -5.68434e-14,8.04714C-5.68434e-14,7.82267 0.0785634,7.63187 0.23569,7.47475L2.71044,5L0.23569,2.52525C0.0785634,2.36813 -5.68434e-14,2.17733 -5.68434e-14,1.95286C-5.68434e-14,1.7284 0.0785634,1.5376 0.23569,1.38047L1.38047,0.23569C1.5376,0.0785634 1.7284,0 1.95286,0C2.17733,0 2.36813,0.0785634 2.52525,0.23569L5,2.71044L7.47475,0.23569C7.63187,0.0785634 7.82267,0 8.04714,0C8.2716,0 8.4624,0.0785634 8.61953,0.23569L9.76431,1.38047C9.92144,1.5376 10,1.7284 10,1.95286C10,2.17733 9.92144,2.36813 9.76431,2.52525L7.28956,5L9.76431,7.47475C9.92144,7.63187 10,7.82267 10,8.04714Z" style="fill:black;fill-rule:nonzero;"/>
            </g>
        </g>
    </g>
</svg>
